<?xml version="1.0" standalone="no"?><!DOCTYPE svg PUBLIC "-//W3C//DTD SVG 1.1//EN" "http://www.w3.org/Graphics/SVG/1.1/DTD/svg11.dtd"><svg t="1657274520932" class="icon" viewBox="0 0 1024 1024" version="1.1" xmlns="http://www.w3.org/2000/svg" p-id="8085" xmlns:xlink="http://www.w3.org/1999/xlink" width="50" height="50"><defs><style type="text/css"></style></defs><path d="M512 981.333333c-113.066667 0-219.733333-44.8-298.666667-123.733333-66.133333-68.266667-104.533333-157.866667-102.4-253.866667-2.133333-149.333333 83.2-232.533333 166.4-311.466666 59.733333-57.6 119.466667-117.333333 151.466667-204.8 12.8-34.133333 49.066667-51.2 81.066667-38.4 2.133333 0 4.266667 2.133333 6.4 4.266666 72.533333 36.266667 155.733333 119.466667 172.8 302.933334 10.666667-8.533333 21.333333-21.333333 36.266666-34.133334 14.933333-14.933333 36.266667-21.333333 55.466667-17.066666 21.333333 4.266667 38.4 17.066667 46.933333 34.133333 64 130.133333 68.266667 230.4 66.133334 268.8 2.133333 98.133333-36.266667 194.133333-104.533334 266.666667-68.266667 70.4-164.266667 106.666667-277.333333 106.666666z m-12.8-840.533333c-40.533333 91.733333-104.533333 155.733333-164.266667 213.333333C256 430.933333 192 490.666667 194.133333 605.866667c0 72.533333 27.733333 140.8 78.933334 192 61.866667 64 147.2 100.266667 236.8 100.266666 81.066667 4.266667 157.866667-25.6 217.6-81.066666 53.333333-55.466667 81.066667-132.266667 81.066666-209.066667v-2.133333c0-70.4-14.933333-138.666667-44.8-200.533334-76.8 74.666667-100.266667 83.2-128 72.533334-17.066667-6.4-27.733333-23.466667-27.733333-42.666667 2.133333-106.666667-17.066667-234.666667-108.8-294.4z" fill="#4E4E4E" p-id="8086"></path><path d="M326.4 729.6c-14.933333 0-29.866667-8.533333-38.4-23.466667-46.933333-87.466667-23.466667-196.266667 53.333333-260.266666 17.066667-17.066667 42.666667-17.066667 59.733334-2.133334 17.066667 17.066667 17.066667 42.666667 2.133333 59.733334-2.133333 2.133333-6.4 4.266667-8.533333 6.4-44.8 38.4-57.6 102.4-29.866667 153.6 10.666667 21.333333 2.133333 46.933333-17.066667 57.6-6.4 6.4-14.933333 8.533333-21.333333 8.533333z" fill="#FF9813" p-id="8087"></path></svg>